<svg xmlns="http://www.w3.org/2000/svg" width="3001" height="3000" fill="none" viewBox="0 0 3001 3000" id="card-payment"><g clip-path="url(#clip0_101_35495)"><path fill="#E5E5E5" d="M1795.44 400.976H1907.96V475.986H1795.44V400.976Z"></path><path fill="#FAC22F" d="M1292.87 -26.5822H1945.46V438.481H1292.87V-26.5822Z"></path><path fill="#53B3CC" d="M280.234 1170.48C280.234 1147.34 298.997 1128.58 322.143 1128.58H1175.95C1199.1 1128.58 1217.86 1147.34 1217.86 1170.48V2669.38C1217.86 2692.53 1199.1 2711.29 1175.95 2711.29H322.143C298.997 2711.29 280.234 2692.53 280.234 2669.38V1170.48Z"></path><path fill="#3E3D3D" fill-rule="evenodd" d="M1.81519 2970.08C1.81519 2965.45 5.56784 2961.69 10.197 2961.69H2991.85C2996.48 2961.69 3000.24 2965.45 3000.24 2970.08C3000.24 2974.71 2996.48 2978.46 2991.85 2978.46H10.197C5.56784 2978.46 1.81519 2974.71 1.81519 2970.08Z" clip-rule="evenodd"></path><path fill="#F1F1F1" d="M850.311 853.65C850.311 761.068 925.364 686.015 1017.95 686.015H1837.83C1930.42 686.015 2005.47 761.068 2005.47 853.651V2318.62C2005.47 2411.21 1930.42 2486.26 1837.83 2486.26H1017.95C925.364 2486.26 850.311 2411.21 850.311 2318.62V853.65Z"></path><path fill="#3E3D3D" fill-rule="evenodd" d="M841.929 853.651C841.929 756.439 920.735 677.633 1017.95 677.633H1837.83C1935.04 677.633 2013.85 756.439 2013.85 853.651V2318.62C2013.85 2415.84 1935.04 2494.64 1837.83 2494.64H1017.95C920.735 2494.64 841.929 2415.84 841.929 2318.62V853.651ZM1017.95 694.397C929.993 694.397 858.693 765.697 858.693 853.651V2318.62C858.693 2406.58 929.993 2477.88 1017.95 2477.88H1837.83C1925.79 2477.88 1997.09 2406.58 1997.09 2318.62V853.651C1997.09 765.697 1925.79 694.397 1837.83 694.397H1017.95Z" clip-rule="evenodd"></path><path fill="#fff" fill-rule="evenodd" d="M910.319 725.123C939.439 700.713 976.977 686.015 1017.95 686.015H1837.83C1878.8 686.015 1916.34 700.713 1945.46 725.123V2447.15C1916.34 2471.56 1878.8 2486.26 1837.83 2486.26H1017.95C976.977 2486.26 939.439 2471.56 910.319 2447.15V725.123Z" clip-rule="evenodd"></path><path fill="#FAC22F" d="M2545.54 1687.4C2545.54 1772.33 2476.7 1841.17 2391.77 1841.17C2306.85 1841.17 2238 1772.33 2238 1687.4C2238 1602.48 2306.85 1533.63 2391.77 1533.63C2476.7 1533.63 2545.54 1602.48 2545.54 1687.4Z"></path><path fill="#F1F1F1" d="M1000.33 1050.47C1000.33 1027.32 1019.09 1008.56 1042.24 1008.56H1813.54C1836.68 1008.56 1855.45 1027.32 1855.45 1050.47V1544.23C1855.45 1567.37 1836.68 1586.14 1813.54 1586.14H1042.24C1019.09 1586.14 1000.33 1567.37 1000.33 1544.23V1050.47Z" opacity=".5"></path><path fill="#53B3CC" d="M1000.33 1736.16H1217.86V1871.18H1000.33V1736.16zM1307.87 1736.16H1525.4V1871.18H1307.87V1736.16zM1615.42 1736.16H1855.45V1871.18H1615.42V1736.16zM1000.33 1953.69H1217.86V2088.71H1000.33V1953.69zM1307.87 1953.69H1525.4V2088.71H1307.87V1953.69zM1615.42 1953.69H1855.45V2088.71H1615.42V1953.69z"></path><path fill="#F15846" d="M1000.33 2178.72H1217.86V2313.74H1000.33V2178.72Z"></path><path fill="#53B3CC" d="M1307.87 2178.72H1525.4V2313.74H1307.87V2178.72Z"></path><path fill="#F15846" d="M1615.42 2178.72H1855.45V2313.74H1615.42V2178.72Z"></path><path fill="#3E3D3D" fill-rule="evenodd" d="M841.929 853.651C841.929 756.439 920.735 677.633 1017.95 677.633H1837.83C1935.04 677.633 2013.85 756.439 2013.85 853.651V2318.62C2013.85 2415.84 1935.04 2494.64 1837.83 2494.64H1017.95C920.735 2494.64 841.929 2415.84 841.929 2318.62V853.651ZM1017.95 694.397C929.993 694.397 858.693 765.697 858.693 853.651V2318.62C858.693 2406.58 929.993 2477.88 1017.95 2477.88H1837.83C1925.79 2477.88 1997.09 2406.58 1997.09 2318.62V853.651C1997.09 765.697 1925.79 694.397 1837.83 694.397H1017.95Z" clip-rule="evenodd"></path><path fill="#F1F1F1" d="M1060.34 355.97H1795.44V873.54H1060.34V355.97Z"></path><path fill="#F1F1F1" fill-rule="evenodd" d="M1097.92 273.459H1832.95L1795.44 314.714V355.97H1060.34V314.714L1060.51 314.531C1060.4 313.357 1060.34 312.167 1060.34 310.964C1060.34 290.25 1077.13 273.459 1097.84 273.459C1097.87 273.459 1097.9 273.459 1097.92 273.459Z" clip-rule="evenodd"></path><path fill="#FAC22F" d="M1945.46 438.481C1945.46 459.195 1928.67 475.986 1907.96 475.986C1887.24 475.986 1870.45 459.195 1870.45 438.481C1870.45 417.768 1887.24 400.976 1907.96 400.976C1928.67 400.976 1945.46 417.768 1945.46 438.481Z"></path><path fill="#E5E5E5" d="M1870.45 310.964C1870.45 331.677 1853.66 348.469 1832.95 348.469C1812.23 348.469 1795.44 331.677 1795.44 310.964C1795.44 290.25 1812.23 273.459 1832.95 273.459C1853.66 273.459 1870.45 290.25 1870.45 310.964Z"></path><path fill="#E5E5E5" d="M1795.44 310.964H1870.45V475.986H1795.44V310.964Z"></path><path fill="#46A4BC" d="M475.26 1128.58H685.289V2711.29H475.26V1128.58Z"></path><path fill="#fff" d="M1667.92 1297.35C1667.92 1427.84 1562.14 1533.63 1431.64 1533.63C1301.15 1533.63 1195.36 1427.84 1195.36 1297.35C1195.36 1166.85 1301.15 1061.07 1431.64 1061.07C1562.14 1061.07 1667.92 1166.85 1667.92 1297.35Z"></path><path fill="#E5E5E5" fill-rule="evenodd" d="M1431.64 1082.02C1312.72 1082.02 1216.31 1178.43 1216.31 1297.35C1216.31 1416.27 1312.72 1512.68 1431.64 1512.68C1550.56 1512.68 1646.97 1416.27 1646.97 1297.35C1646.97 1178.43 1550.56 1082.02 1431.64 1082.02ZM1174.4 1297.35C1174.4 1155.28 1289.57 1040.11 1431.64 1040.11C1573.71 1040.11 1688.88 1155.28 1688.88 1297.35C1688.88 1439.42 1573.71 1554.58 1431.64 1554.58C1289.57 1554.58 1174.4 1439.42 1174.4 1297.35Z" clip-rule="evenodd"></path><path fill="#53B3CC" fill-rule="evenodd" d="M1731.72 1168.71L1389.73 1444.18L1243.7 1238.51L1312.04 1189.98L1406.51 1323.04L1679.14 1103.44L1731.72 1168.71Z" clip-rule="evenodd"></path><path fill="#F15846" d="M719.044 809.782C719.044 894.707 648.519 963.553 561.522 963.553C474.526 963.553 404.001 894.707 404.001 809.782C404.001 724.856 474.526 656.011 561.522 656.011C648.519 656.011 719.044 724.856 719.044 809.782Z"></path><path fill="#fff" fill-rule="evenodd" d="M674.118 778.651L498.667 891.441L438.691 794.557L474.325 772.498L511.863 833.136L651.455 743.398L674.118 778.651Z" clip-rule="evenodd"></path><path fill="#F15846" d="M2433.03 1162.33C2433.03 1321.82 2303.73 1451.12 2144.24 1451.12C1984.74 1451.12 1855.45 1321.82 1855.45 1162.33C1855.45 1002.84 1984.74 873.541 2144.24 873.541C2303.73 873.541 2433.03 1002.84 2433.03 1162.33Z"></path><path fill="#EFCB96" fill-rule="evenodd" d="M2005.47 2039.95L1754.18 1837.42C1709.22 1802.83 1631.08 1650.21 1708.64 1509.01C1710.04 1506.46 1711.68 1504.18 1713.52 1502.16C1726.4 1488.03 1748.92 1486.92 1765.02 1499.37C1919.85 1619.08 2178.09 1820.69 2189.24 1837.42C2191.97 1841.51 2196.38 1845.99 2201.9 1851.6C2208.12 1857.91 2215.74 1865.66 2223.94 1875.87C2248.52 1906.51 2278.23 1959.35 2290.51 2062.45C2293.12 2084.44 2296.25 2107.09 2299.45 2130.19C2319.12 2272.57 2341.18 2432.19 2260.5 2561.27C2258 2595.02 2290.51 2723.29 2440.53 2966.33H1457.89C1450.39 2948.82 1429.39 2910.82 1405.39 2898.82C1401.43 2896.84 1395.39 2894.27 1387.75 2891.03C1337.4 2869.66 1217.45 2818.74 1165.35 2711.29H1175.95C1199.09 2711.29 1217.86 2692.53 1217.86 2669.38L1217.86 2651.28L1217.86 2486.26H1846.21C1934.17 2486.26 2005.47 2414.96 2005.47 2327.01V2039.95Z" clip-rule="evenodd"></path><path fill="#E5E5E5" d="M1060.34 821.033H1795.44V873.54H1060.34V821.033Z"></path><path fill="#3E3D3D" fill-rule="evenodd" d="M1682.92 446.863H1172.86V430.099H1682.92V446.863ZM1682.92 578.131H1172.86V561.367H1682.92V578.131ZM1682.92 698.147H1172.86V681.383H1682.92V698.147Z" clip-rule="evenodd"></path><path fill="#fff" fill-rule="evenodd" d="M2147.99 972.602C2159.56 972.602 2168.94 981.984 2168.94 993.557V1010.59C2214.67 1011.52 2251.45 1048.87 2251.45 1094.82H2209.54C2209.54 1071.44 2190.59 1052.49 2167.21 1052.49H2132.99C2107.27 1052.49 2086.43 1073.33 2086.43 1099.04 2086.43 1124.75 2107.27 1145.59 2132.99 1145.59H2167.21C2213.74 1145.59 2251.45 1183.31 2251.45 1229.84 2251.45 1275.79 2214.67 1313.14 2168.94 1314.07V1331.1C2168.94 1342.68 2159.56 1352.06 2147.99 1352.06 2136.41 1352.06 2127.03 1342.68 2127.03 1331.1V1314.08H2120.33C2078.46 1314.08 2044.52 1280.14 2044.52 1238.28H2086.43C2086.43 1257 2101.61 1272.17 2120.33 1272.17H2167.21C2190.59 1272.17 2209.54 1253.22 2209.54 1229.84 2209.54 1206.46 2190.59 1187.5 2167.21 1187.5H2132.99C2084.13 1187.5 2044.52 1147.9 2044.52 1099.04 2044.52 1052.18 2080.95 1013.84 2127.03 1010.77V993.557C2127.03 981.984 2136.41 972.602 2147.99 972.602zM2395.52 1581.07C2402.47 1581.07 2408.09 1586.69 2408.09 1593.64V1602.24C2433.19 1603.65 2453.1 1624.45 2453.1 1649.9H2427.96C2427.96 1637.42 2417.84 1627.31 2405.37 1627.31H2388.02C2374.25 1627.31 2363.09 1638.47 2363.09 1652.24 2363.09 1666.01 2374.25 1677.17 2388.02 1677.17H2405.37C2431.73 1677.17 2453.1 1698.54 2453.1 1724.91 2453.1 1750.35 2433.19 1771.15 2408.09 1772.56V1781.16C2408.09 1788.11 2402.47 1793.74 2395.52 1793.74 2388.58 1793.74 2382.95 1788.11 2382.95 1781.16V1772.64H2380.99C2357.22 1772.64 2337.94 1753.37 2337.94 1729.59H2363.09C2363.09 1739.48 2371.1 1747.49 2380.99 1747.49H2405.37C2417.84 1747.49 2427.96 1737.38 2427.96 1724.91 2427.96 1712.43 2417.84 1702.32 2405.37 1702.32H2388.02C2360.36 1702.32 2337.94 1679.9 2337.94 1652.24 2337.94 1626.29 2357.67 1604.96 2382.95 1602.42V1593.64C2382.95 1586.69 2388.58 1581.07 2395.52 1581.07z" clip-rule="evenodd"></path></g><defs><clipPath id="clip0_101_35495"><rect width="3000" height="3000" fill="#fff" transform="translate(.235)"></rect></clipPath></defs></svg>